solid transformer_eyeballs_helmet_12_correct_eyeball
facet normal 0.6087614290082 0.793353340291634 -3.02935498381802e-008
outer loop
vertex 63.1695911677535 183.954815307868 1.58944149991069e-006
vertex 63.4549364674904 183.735862204308 1.20000000000659
vertex 63.4549350836704 183.735863220329 1.31579156223138e-006
endloop
endfacet
facet normal 0.499999978997207 0.866025415910392 1.56658879056227e-007
outer loop
vertex 63.4549364674904 183.735862204308 1.20000000000659
vertex 63.1695911677535 183.954815307868 1.58944149991069e-006
vertex 63.1695925515735 183.954814291846 1.20000027365653
endloop
endfacet
facet normal -6.51168554391896e-009 0.999999999999642 8.46685532288759e-007
outer loop
vertex 64.2049350836692 183.534901326007 2.12333400395615e-007
vertex 64.5931650351425 183.586011570552 1.19999846415478
vertex 64.5931636513224 183.586012586574 -2.20060244973674e-007
endloop
endfacet
facet normal -0.258819040024055 0.965925827649194 1.11630156252761e-006
outer loop
vertex 64.5931650351425 183.586011570552 1.19999846415478
vertex 64.2049350836692 183.534901326007 2.12333400395615e-007
vertex 64.2049364674893 183.534900309986 1.19999889654843
endloop
endfacet
facet normal -0.965925824855108 0.258819050452589 8.94752504161062e-007
outer loop
vertex 65.6538252069207 174.622431126486 1.19999880153962
vertex 65.7049350836669 175.010658678118 -2.92963065393059e-007
vertex 65.6538238231006 174.622430110464 1.17324595175217e-007
endloop
endfacet
facet normal -0.999999999999335 -3.98739152982255e-009 1.1531846650544e-006
outer loop
vertex 65.7049350836669 175.010658678118 -2.92963065393059e-007
vertex 65.6538252069207 174.622431126486 1.19999880153962
vertex 65.704936467487 175.010659694139 1.19999839125196
endloop
endfacet
facet normal 8.87748466768659e-009 -4.20381558447224e-008 0.999999999999999
outer loop
vertex 62.3736475417907 180.022780002062 1.2
vertex 63.1695925515735 183.954814291846 1.20000027365653
vertex 62.3736475417829 182.859289970675 1.20000000000027
endloop
endfacet
facet normal 8.87748466768659e-009 -4.20381558447224e-008 0.999999999999999
outer loop
vertex 63.1695925515735 183.954814291846 1.20000027365653
vertex 62.3736475417907 180.022780002062 1.2
vertex 63.4549364674904 183.735862204308 1.20000000000659
endloop
endfacet
facet normal 8.87748466768659e-009 -4.20381558447224e-008 0.999999999999999
outer loop
vertex 63.4549364674904 183.735862204308 1.20000000000659
vertex 62.3736475417907 180.022780002062 1.2
vertex 71.1035275751938 180.022780002062 1.2
endloop
endfacet
facet normal 8.87748466768659e-009 -4.20381558447224e-008 0.999999999999999
outer loop
vertex 63.4549364674904 183.735862204308 1.20000000000659
vertex 71.1035275751938 180.022780002062 1.2
vertex 63.8167078998361 183.586011570551 1.19999942039888
endloop
endfacet
facet normal 8.87748466768659e-009 -4.20381558447224e-008 0.999999999999999
outer loop
vertex 63.8167078998361 183.586011570551 1.19999942039888
vertex 71.1035275751938 180.022780002062 1.2
vertex 64.2049364674893 183.534900309986 1.19999889654843
endloop
endfacet
facet normal 8.87748466768659e-009 -4.20381558447224e-008 0.999999999999999
outer loop
vertex 64.2049364674893 183.534900309986 1.19999889654843
vertex 71.1035275751938 180.022780002062 1.2
vertex 64.5931650351425 183.586011570552 1.19999846415478
endloop
endfacet
facet normal 8.87748466768659e-009 -4.20381558447224e-008 0.999999999999999
outer loop
vertex 64.5931650351425 183.586011570552 1.19999846415478
vertex 71.1035275751938 180.022780002062 1.2
vertex 64.9549364674882 183.735862204309 1.19999815268486
endloop
endfacet
facet normal 8.87748466768659e-009 -4.20381558447224e-008 0.999999999999999
outer loop
vertex 64.9549364674882 183.735862204309 1.19999815268486
vertex 71.1035275751938 180.022780002062 1.2
vertex 65.2655966392675 183.974240138206 1.1999979833648
endloop
endfacet
facet normal 8.87748466768659e-009 -4.20381558447224e-008 0.999999999999999
outer loop
vertex 65.2655966392675 183.974240138206 1.1999979833648
vertex 71.1035275751938 180.022780002062 1.2
vertex 65.503974573164 184.284900309986 1.19999796773351
endloop
endfacet
facet normal 8.87748466768659e-009 -4.20381558447224e-008 0.999999999999999
outer loop
vertex 65.503974573164 184.284900309986 1.19999796773351
vertex 71.1035275751938 180.022780002062 1.2
vertex 65.6538252069207 184.646671742332 1.19999810685623
endloop
endfacet
facet normal 8.87748466768659e-009 -4.20381558447224e-008 0.999999999999999
outer loop
vertex 65.6538252069207 184.646671742332 1.19999810685623
vertex 71.1035275751938 180.022780002062 1.2
vertex 65.704936467487 185.034900309985 1.19999839125196
endloop
endfacet
facet normal 8.87748466768659e-009 -4.20381558447224e-008 0.999999999999999
outer loop
vertex 65.704936467487 185.034900309985 1.19999839125196
vertex 71.1035275751938 180.022780002062 1.2
vertex 65.7081649968292 187.448859509324 1.19999999999481
endloop
endfacet
facet normal 8.87748466768659e-009 -4.20381558447224e-008 0.999999999999999
outer loop
vertex 65.7081649968292 187.448859509324 1.19999999999481
vertex 71.1035275751938 180.022780002062 1.2
vertex 71.1035275751938 189.201919079369 1.19999999999152
endloop
endfacet
facet normal 8.87748466768659e-009 -4.20381558447224e-008 0.999999999999999
outer loop
vertex 64.9549364674882 186.33393841566 1.20000047714081
vertex 65.7081649968292 187.448859509324 1.19999999999481
vertex 64.9112688917361 186.352026117772 1.2000002735492
endloop
endfacet
facet normal 8.87748466768659e-009 -4.20381558447224e-008 0.999999999999999
outer loop
vertex 65.7081649968292 187.448859509324 1.19999999999481
vertex 64.9549364674882 186.33393841566 1.20000047714081
vertex 65.2655966392675 186.095560481764 1.19999988127514
endloop
endfacet
facet normal 8.87748466768659e-009 -4.20381558447224e-008 0.999999999999999
outer loop
vertex 65.7081649968292 187.448859509324 1.19999999999481
vertex 65.2655966392675 186.095560481764 1.19999988127514
vertex 65.503974573164 185.784900309984 1.19999930975878
endloop
endfacet
facet normal 8.87748466768659e-009 -4.20381558447224e-008 0.999999999999999
outer loop
vertex 65.7081649968292 187.448859509324 1.19999999999481
vertex 65.503974573164 185.784900309984 1.19999930975878
vertex 65.6538252069207 185.423128877639 1.19999880153962
endloop
endfacet
facet normal 8.87748466768659e-009 -4.20381558447224e-008 0.999999999999999
outer loop
vertex 65.7081649968292 187.448859509324 1.19999999999481
vertex 65.6538252069207 185.423128877639 1.19999880153962
vertex 65.704936467487 185.034900309985 1.19999839125196
endloop
endfacet
facet normal -8.87748468016622e-009 -4.20381558514236e-008 0.999999999999999
outer loop
vertex 79.833407608597 180.022780002062 1.2
vertex 71.1035275751938 189.201919079369 1.19999999999152
vertex 71.1035275751938 180.022780002062 1.2
endloop
endfacet
facet normal -8.87748468016622e-009 -4.20381558514236e-008 0.999999999999999
outer loop
vertex 71.1035275751938 189.201919079369 1.19999999999152
vertex 79.833407608597 180.022780002062 1.2
vertex 76.7030805772237 184.284900309986 1.19999796773351
endloop
endfacet
facet normal -8.87748468016622e-009 -4.20381558514236e-008 0.999999999999999
outer loop
vertex 71.1035275751938 189.201919079369 1.19999999999152
vertex 76.7030805772237 184.284900309986 1.19999796773351
vertex 76.553229943467 184.646671742332 1.19999810685623
endloop
endfacet
facet normal -8.87748468016622e-009 -4.20381558514236e-008 0.999999999999999
outer loop
vertex 71.1035275751938 189.201919079369 1.19999999999152
vertex 76.553229943467 184.646671742332 1.19999810685623
vertex 76.5021186829006 185.034900309985 1.19999839125196
endloop
endfacet
facet normal -8.87748468016622e-009 -4.20381558514236e-008 0.999999999999999
outer loop
vertex 71.1035275751938 189.201919079369 1.19999999999152
vertex 76.5021186829006 185.034900309985 1.19999839125196
vertex 76.4988901535584 187.448859509324 1.19999999999481
endloop
endfacet
facet normal -8.87748468016622e-009 -4.20381558514236e-008 0.999999999999999
outer loop
vertex 76.7030805772237 184.284900309986 1.19999796773351
vertex 79.833407608597 180.022780002062 1.2
vertex 76.9414585111201 183.974240138206 1.1999979833648
endloop
endfacet
facet normal -8.87748468016622e-009 -4.20381558514236e-008 0.999999999999999
outer loop
vertex 76.9414585111201 183.974240138206 1.1999979833648
vertex 79.833407608597 180.022780002062 1.2
vertex 77.2521186828995 183.735862204309 1.19999815268486
endloop
endfacet
facet normal -8.87748468016622e-009 -4.20381558514236e-008 0.999999999999999
outer loop
vertex 77.2521186828995 183.735862204309 1.19999815268486
vertex 79.833407608597 180.022780002062 1.2
vertex 77.6138901152452 183.586011570552 1.19999846415478
endloop
endfacet
facet normal -8.87748468016622e-009 -4.20381558514236e-008 0.999999999999999
outer loop
vertex 77.6138901152452 183.586011570552 1.19999846415478
vertex 79.833407608597 180.022780002062 1.2
vertex 78.0021186828983 183.534900309986 1.19999889654843
endloop
endfacet
facet normal -8.87748468016622e-009 -4.20381558514236e-008 0.999999999999999
outer loop
vertex 78.0021186828983 183.534900309986 1.19999889654843
vertex 79.833407608597 180.022780002062 1.2
vertex 78.3903472505515 183.586011570551 1.19999942039888
endloop
endfacet
facet normal -8.87748468016622e-009 -4.20381558514236e-008 0.999999999999999
outer loop
vertex 78.3903472505515 183.586011570551 1.19999942039888
vertex 79.833407608597 180.022780002062 1.2
vertex 78.7521186828972 183.735862204308 1.20000000000659
endloop
endfacet
facet normal -8.87748468016622e-009 -4.20381558514236e-008 0.999999999999999
outer loop
vertex 78.7521186828972 183.735862204308 1.20000000000659
vertex 79.833407608597 180.022780002062 1.2
vertex 79.0374625988141 183.954814291846 1.20000027365653
endloop
endfacet
facet normal -8.87748468016622e-009 -4.20381558514236e-008 0.999999999999999
outer loop
vertex 79.0374625988141 183.954814291846 1.20000027365653
vertex 79.833407608597 180.022780002062 1.2
vertex 79.8334076086048 182.859289970675 1.20000000000027
endloop
endfacet
facet normal -8.87748468016622e-009 -4.20381558514236e-008 0.999999999999999
outer loop
vertex 76.4988901535584 187.448859509324 1.19999999999481
vertex 77.2521186828995 186.33393841566 1.20000047714081
vertex 77.2957862586516 186.352026117772 1.2000002735492
endloop
endfacet
facet normal -8.87748468016622e-009 -4.20381558514236e-008 0.999999999999999
outer loop
vertex 77.2521186828995 186.33393841566 1.20000047714081
vertex 76.4988901535584 187.448859509324 1.19999999999481
vertex 76.9414585111201 186.095560481764 1.19999988127514
endloop
endfacet
facet normal -8.87748468016622e-009 -4.20381558514236e-008 0.999999999999999
outer loop
vertex 76.9414585111201 186.095560481764 1.19999988127514
vertex 76.4988901535584 187.448859509324 1.19999999999481
vertex 76.7030805772237 185.784900309984 1.19999930975878
endloop
endfacet
facet normal -8.87748468016622e-009 -4.20381558514236e-008 0.999999999999999
outer loop
vertex 76.7030805772237 185.784900309984 1.19999930975878
vertex 76.4988901535584 187.448859509324 1.19999999999481
vertex 76.5532299434669 185.423128877639 1.19999880153962
endloop
endfacet
facet normal -8.87748468016622e-009 -4.20381558514236e-008 0.999999999999999
outer loop
vertex 76.5532299434669 185.423128877639 1.19999880153962
vertex 76.4988901535584 187.448859509324 1.19999999999481
vertex 76.5021186829006 185.034900309985 1.19999839125196
endloop
endfacet
facet normal -0.866025403883027 -0.499999999827219 1.4220299757494e-006
outer loop
vertex 65.503974573164 175.760659694138 1.19999796773351
vertex 65.2655952554474 176.071318849897 -7.00850225615612e-007
vertex 65.5039731893439 175.760658678117 -7.16481516260803e-007
endloop
endfacet
facet normal -0.707106782447723 -0.707106779923958 1.41412177171033e-006
outer loop
vertex 65.2655952554474 176.071318849897 -7.00850225615612e-007
vertex 65.503974573164 175.760659694138 1.19999796773351
vertex 65.2655966392675 176.071319865918 1.1999979833648
endloop
endfacet
facet normal -0.309016994377272 -0.951056516294398 -3.5566112747367e-014
outer loop
vertex 71.1035275751938 170.843640924756 1.19999999999152
vertex 65.7081649968225 172.596700494801 -5.18697584883654e-012
vertex 71.1035275752005 170.843640924756 -8.47858172559057e-012
endloop
endfacet
facet normal -0.309016994377272 -0.951056516294398 -3.5566112747367e-014
outer loop
vertex 65.7081649968225 172.596700494801 -5.18697584883654e-012
vertex 71.1035275751938 170.843640924756 1.19999999999152
vertex 65.7081649968292 172.596700494801 1.19999999999481
endloop
endfacet
facet normal 0.500000021001912 0.866025391658965 1.56658810083713e-007
outer loop
vertex 63.4549350836704 183.735863220329 1.31579156223138e-006
vertex 63.8167078998361 183.586011570551 1.19999942039888
vertex 63.816706516016 183.586012586573 7.36183849403549e-007
endloop
endfacet
facet normal 0.258819052174832 0.965925824393909 5.19369252815826e-007
outer loop
vertex 63.8167078998361 183.586011570551 1.19999942039888
vertex 63.4549350836704 183.735863220329 1.31579156223138e-006
vertex 63.4549364674904 183.735862204308 1.20000000000659
endloop
endfacet
facet normal 0.499999996843008 0.866025405606138 1.30984350299333e-006
outer loop
vertex 77.2521186828995 183.735862204309 1.19999815268486
vertex 77.6138914990652 183.586012586574 -2.20060244973674e-007
vertex 77.2521200667196 183.735863220331 -5.31530173356054e-007
endloop
endfacet
facet normal 0.258819050180733 0.96592582492772 1.11630157265771e-006
outer loop
vertex 77.6138914990652 183.586012586574 -2.20060244973674e-007
vertex 77.2521186828995 183.735862204309 1.19999815268486
vertex 77.6138901152452 183.586011570552 1.19999846415478
endloop
endfacet
facet normal 8.87748467669684e-009 4.20381558492313e-008 0.999999999999999
outer loop
vertex 65.7081649968292 172.596700494801 1.19999999999481
vertex 64.9549364674882 173.711621588465 1.20000047714081
vertex 64.9112688917361 173.693533886352 1.2000002735492
endloop
endfacet
facet normal 8.87748467669684e-009 4.20381558492313e-008 0.999999999999999
outer loop
vertex 64.9549364674882 173.711621588465 1.20000047714081
vertex 65.7081649968292 172.596700494801 1.19999999999481
vertex 65.2655966392675 173.949999522361 1.19999988127514
endloop
endfacet
facet normal 8.87748467669684e-009 4.20381558492313e-008 0.999999999999999
outer loop
vertex 65.2655966392675 173.949999522361 1.19999988127514
vertex 65.7081649968292 172.596700494801 1.19999999999481
vertex 65.503974573164 174.26065969414 1.19999930975878
endloop
endfacet
facet normal 8.87748467669684e-009 4.20381558492313e-008 0.999999999999999
outer loop
vertex 65.503974573164 174.26065969414 1.19999930975878
vertex 65.7081649968292 172.596700494801 1.19999999999481
vertex 65.6538252069207 174.622431126486 1.19999880153962
endloop
endfacet
facet normal 8.87748467669684e-009 4.20381558492313e-008 0.999999999999999
outer loop
vertex 65.6538252069207 174.622431126486 1.19999880153962
vertex 65.7081649968292 172.596700494801 1.19999999999481
vertex 65.704936467487 175.010659694139 1.19999839125196
endloop
endfacet
facet normal 8.87748467669684e-009 4.20381558492313e-008 0.999999999999999
outer loop
vertex 63.1695925515735 176.090745712278 1.20000027365653
vertex 62.3736475417907 180.022780002062 1.2
vertex 62.3736475417829 177.186270033449 1.20000000000027
endloop
endfacet
facet normal 8.87748467669684e-009 4.20381558492313e-008 0.999999999999999
outer loop
vertex 62.3736475417907 180.022780002062 1.2
vertex 63.1695925515735 176.090745712278 1.20000027365653
vertex 63.4549364674904 176.309697799817 1.20000000000659
endloop
endfacet
facet normal 8.87748467669684e-009 4.20381558492313e-008 0.999999999999999
outer loop
vertex 62.3736475417907 180.022780002062 1.2
vertex 63.4549364674904 176.309697799817 1.20000000000659
vertex 71.1035275751938 180.022780002062 1.2
endloop
endfacet
facet normal 8.87748467669684e-009 4.20381558492313e-008 0.999999999999999
outer loop
vertex 71.1035275751938 180.022780002062 1.2
vertex 63.4549364674904 176.309697799817 1.20000000000659
vertex 63.8167078998361 176.459548433573 1.19999942039888
endloop
endfacet
facet normal 8.87748467669684e-009 4.20381558492313e-008 0.999999999999999
outer loop
vertex 71.1035275751938 180.022780002062 1.2
vertex 63.8167078998361 176.459548433573 1.19999942039888
vertex 64.2049364674893 176.510659694139 1.19999889654843
endloop
endfacet
facet normal 8.87748467669684e-009 4.20381558492313e-008 0.999999999999999
outer loop
vertex 71.1035275751938 180.022780002062 1.2
vertex 64.2049364674893 176.510659694139 1.19999889654843
vertex 64.5931650351425 176.459548433572 1.19999846415478
endloop
endfacet
facet normal 8.87748467669684e-009 4.20381558492313e-008 0.999999999999999
outer loop
vertex 71.1035275751938 180.022780002062 1.2
vertex 64.5931650351425 176.459548433572 1.19999846415478
vertex 64.9549364674882 176.309697799815 1.19999815268486
endloop
endfacet
facet normal 8.87748467669684e-009 4.20381558492313e-008 0.999999999999999
outer loop
vertex 71.1035275751938 180.022780002062 1.2
vertex 64.9549364674882 176.309697799815 1.19999815268486
vertex 65.2655966392675 176.071319865918 1.1999979833648
endloop
endfacet
facet normal 8.87748467669684e-009 4.20381558492313e-008 0.999999999999999
outer loop
vertex 71.1035275751938 180.022780002062 1.2
vertex 65.2655966392675 176.071319865918 1.1999979833648
vertex 65.503974573164 175.760659694138 1.19999796773351
endloop
endfacet
facet normal 8.87748467669684e-009 4.20381558492313e-008 0.999999999999999
outer loop
vertex 71.1035275751938 180.022780002062 1.2
vertex 65.503974573164 175.760659694138 1.19999796773351
vertex 65.6538252069207 175.398888261792 1.19999810685623
endloop
endfacet
facet normal 8.87748467669684e-009 4.20381558492313e-008 0.999999999999999
outer loop
vertex 71.1035275751938 180.022780002062 1.2
vertex 65.6538252069207 175.398888261792 1.19999810685623
vertex 65.704936467487 175.010659694139 1.19999839125196
endloop
endfacet
facet normal 8.87748467669684e-009 4.20381558492313e-008 0.999999999999999
outer loop
vertex 71.1035275751938 180.022780002062 1.2
vertex 65.704936467487 175.010659694139 1.19999839125196
vertex 65.7081649968292 172.596700494801 1.19999999999481
endloop
endfacet
facet normal 8.87748467669684e-009 4.20381558492313e-008 0.999999999999999
outer loop
vertex 71.1035275751938 180.022780002062 1.2
vertex 65.7081649968292 172.596700494801 1.19999999999481
vertex 71.1035275751938 170.843640924756 1.19999999999152
endloop
endfacet
facet normal -0.707106779924513 -0.707106782447168 1.41412177093697e-006
outer loop
vertex 65.2655966392675 176.071319865918 1.1999979833648
vertex 64.9549350836681 176.309696783794 -5.31530174413541e-007
vertex 65.2655952554474 176.071318849897 -7.00850225615612e-007
endloop
endfacet
facet normal -0.500000003156407 -0.866025401961095 1.30984350719271e-006
outer loop
vertex 64.9549350836681 176.309696783794 -5.31530174413541e-007
vertex 65.2655966392675 176.071319865918 1.1999979833648
vertex 64.9549364674882 176.309697799815 1.19999815268486
endloop
endfacet
facet normal 0.707106779924525 0.707106782447156 1.41412177060516e-006
outer loop
vertex 76.9414585111201 183.974240138206 1.1999979833648
vertex 77.2521200667196 183.735863220331 -5.31530173356054e-007
vertex 76.9414598949402 183.974241154228 -7.00850224558125e-007
endloop
endfacet
facet normal 0.50000000315638 0.866025401961111 1.30984350718762e-006
outer loop
vertex 77.2521200667196 183.735863220331 -5.31530173356054e-007
vertex 76.9414585111201 183.974240138206 1.1999979833648
vertex 77.2521186828995 183.735862204309 1.19999815268486
endloop
endfacet
facet normal -0.809016622234928 -0.587785764498492 7.15309089345044e-007
outer loop
vertex 64.9112688917361 173.693533886352 1.2000002735492
vertex 65.7081649968225 172.596700494801 -5.18697584883654e-012
vertex 65.7081649968292 172.596700494801 1.19999999999481
endloop
endfacet
facet normal -0.809016622234928 -0.587785764498492 7.15309089345044e-007
outer loop
vertex 65.7081649968225 172.596700494801 -5.18697584883654e-012
vertex 64.9112688917361 173.693533886352 1.2000002735492
vertex 64.911267507916 173.693532870331 1.58933417128138e-006
endloop
endfacet
facet normal -0.999999999999335 3.9894475026221e-009 1.15318465830053e-006
outer loop
vertex 65.704936467487 175.010659694139 1.19999839125196
vertex 65.6538238231006 175.398887245771 -5.77358802952843e-007
vertex 65.7049350836669 175.010658678118 -2.92963065393059e-007
endloop
endfacet
facet normal -0.965925825727538 -0.258819047194748 1.33302918736273e-006
outer loop
vertex 65.6538238231006 175.398887245771 -5.77358802952843e-007
vertex 65.704936467487 175.010659694139 1.19999839125196
vertex 65.6538252069207 175.398888261792 1.19999810685623
endloop
endfacet
facet normal 0.258819038029753 0.965925828184071 5.1936927233679e-007
outer loop
vertex 63.816706516016 183.586012586573 7.36183849403549e-007
vertex 64.2049364674893 183.534900309986 1.19999889654843
vertex 64.2049350836692 183.534901326007 2.12333400395615e-007
endloop
endfacet
facet normal 6.51157681208043e-009 0.999999999999642 8.46685517270532e-007
outer loop
vertex 64.2049364674893 183.534900309986 1.19999889654843
vertex 63.816706516016 183.586012586573 7.36183849403549e-007
vertex 63.8167078998361 183.586011570551 1.19999942039888
endloop
endfacet
facet normal 0.999999999999335 -3.98738749308974e-009 1.1531846629638e-006
outer loop
vertex 76.5021200667207 175.010658678118 -2.92963065393059e-007
vertex 76.553229943467 174.622431126486 1.19999880153963
vertex 76.553231327287 174.622430110464 1.17324595527712e-007
endloop
endfacet
facet normal 0.965925824855109 0.258819050452584 8.94752491556711e-007
outer loop
vertex 76.553229943467 174.622431126486 1.19999880153963
vertex 76.5021200667207 175.010658678118 -2.92963065393059e-007
vertex 76.5021186829006 175.010659694139 1.19999839125196
endloop
endfacet
facet normal -0.258819040024096 -0.965925827649183 1.11630156390063e-006
outer loop
vertex 64.5931650351425 176.459548433572 1.19999846415478
vertex 64.2049350836692 176.510658678117 2.12333400395615e-007
vertex 64.5931636513224 176.459547417551 -2.20060244973674e-007
endloop
endfacet
facet normal -6.51169768085068e-009 -0.999999999999642 8.46685532504166e-007
outer loop
vertex 64.2049350836692 176.510658678117 2.12333400395615e-007
vertex 64.5931650351425 176.459548433572 1.19999846415478
vertex 64.2049364674893 176.510659694139 1.19999889654843
endloop
endfacet
facet normal -6.5115345912419e-009 0.999999999999642 8.46685517543236e-007
outer loop
vertex 78.0021186828983 183.534900309986 1.19999889654843
vertex 78.3903486343716 183.586012586573 7.36183851166028e-007
vertex 78.0021200667184 183.534901326007 2.12333401100606e-007
endloop
endfacet
facet normal -0.258819038029757 0.96592582818407 5.19369273501612e-007
outer loop
vertex 78.3903486343716 183.586012586573 7.36183851166028e-007
vertex 78.0021186828983 183.534900309986 1.19999889654843
vertex 78.3903472505515 183.586011570551 1.19999942039888
endloop
endfacet
facet normal -0.258819052174836 0.965925824393908 5.19369253980648e-007
outer loop
vertex 78.3903472505515 183.586011570551 1.19999942039888
vertex 78.7521200667173 183.735863220329 1.31579156187889e-006
vertex 78.3903486343716 183.586012586573 7.36183851166028e-007
endloop
endfacet
facet normal -0.500000021001956 0.866025391658939 1.56658810921376e-007
outer loop
vertex 78.7521200667173 183.735863220329 1.31579156187889e-006
vertex 78.3903472505515 183.586011570551 1.19999942039888
vertex 78.7521186828972 183.735862204308 1.20000000000659
endloop
endfacet
facet normal -0.965925824855106 -0.258819050452594 8.94752502136983e-007
outer loop
vertex 65.6538252069207 185.423128877639 1.19999880153962
vertex 65.7049350836669 185.034901326007 -2.92963065393059e-007
vertex 65.704936467487 185.034900309985 1.19999839125196
endloop
endfacet
facet normal -0.999999999999335 3.98739488931101e-009 1.15318466407806e-006
outer loop
vertex 65.7049350836669 185.034901326007 -2.92963065393059e-007
vertex 65.6538252069207 185.423128877639 1.19999880153962
vertex 65.6538238231006 185.42312989366 1.17324595175217e-007
endloop
endfacet
facet normal -0.258819050180715 0.965925824927725 1.11630157193588e-006
outer loop
vertex 64.5931636513224 183.586012586574 -2.20060244973674e-007
vertex 64.9549364674882 183.735862204309 1.19999815268486
vertex 64.9549350836681 183.735863220331 -5.31530174413541e-007
endloop
endfacet
facet normal -0.499999996843039 0.866025405606121 1.30984350127699e-006
outer loop
vertex 64.9549364674882 183.735862204309 1.19999815268486
vertex 64.5931636513224 183.586012586574 -2.20060244973674e-007
vertex 64.5931650351425 183.586011570552 1.19999846415478
endloop
endfacet
facet normal 0.258819052174842 -0.965925824393906 5.19369252311126e-007
outer loop
vertex 63.8167078998361 176.459548433573 1.19999942039888
vertex 63.4549350836704 176.309696783795 1.31579156223138e-006
vertex 63.816706516016 176.459547417552 7.3618385010854e-007
endloop
endfacet
facet normal 0.500000021001948 -0.866025391658944 1.5665880846956e-007
outer loop
vertex 63.4549350836704 176.309696783795 1.31579156223138e-006
vertex 63.8167078998361 176.459548433573 1.19999942039888
vertex 63.4549364674904 176.309697799817 1.20000000000659
endloop
endfacet
facet normal 0.499999796567978 0.866025521235925 -1.56659190324376e-007
outer loop
vertex 77.2521200667196 173.711620572443 1.79292577956736e-006
vertex 77.2957862586516 173.693533886352 1.2000002735492
vertex 77.2957876424716 173.693532870331 1.58933417163387e-006
endloop
endfacet
facet normal 0.382683432364805 0.923879532511342 -3.4093076234506e-007
outer loop
vertex 77.2957862586516 173.693533886352 1.2000002735492
vertex 77.2521200667196 173.711620572443 1.79292577956736e-006
vertex 77.2521186828995 173.711621588465 1.20000047714081
endloop
endfacet
facet normal -0.866025400428887 0.500000005811655 5.75344443097233e-007
outer loop
vertex 65.503974573164 174.26065969414 1.19999930975878
vertex 65.6538238231006 174.622430110464 1.17324595175217e-007
vertex 65.5039731893439 174.260658678119 6.25543753890456e-007
endloop
endfacet
facet normal -0.96592582772171 0.258819039754282 8.94752516524886e-007
outer loop
vertex 65.6538238231006 174.622430110464 1.17324595175217e-007
vertex 65.503974573164 174.26065969414 1.19999930975878
vertex 65.6538252069207 174.622431126486 1.19999880153962
endloop
endfacet
facet normal 0.866025407138766 -0.499999994189804 5.7534445931963e-007
outer loop
vertex 76.7030819610438 185.784901326006 6.25543753890456e-007
vertex 76.9414585111201 186.095560481764 1.19999988127514
vertex 76.7030805772237 185.784900309984 1.19999930975878
endloop
endfacet
facet normal 0.707106775935998 -0.707106786437064 2.16727607188079e-007
outer loop
vertex 76.9414585111201 186.095560481764 1.19999988127514
vertex 76.7030819610438 185.784901326006 6.25543753890456e-007
vertex 76.9414598949402 186.095561497785 1.19706011362519e-006
endloop
endfacet
facet normal -5.88511479513683e-008 -6.36876236576119e-008 -0.999999999999996
outer loop
vertex 62.373647541784 180.022780002062 -1.76247905159244e-015
vertex 63.1695911677535 176.090744696257 1.58944150061568e-006
vertex 62.3736475417762 177.186270033449 2.7036428651428e-013
endloop
endfacet
facet normal -5.88511479513683e-008 -6.36876236576119e-008 -0.999999999999996
outer loop
vertex 63.1695911677535 176.090744696257 1.58944150061568e-006
vertex 62.373647541784 180.022780002062 -1.76247905159244e-015
vertex 63.4549350836704 176.309696783795 1.31579156223138e-006
endloop
endfacet
facet normal -5.88511479513683e-008 -6.36876236576119e-008 -0.999999999999996
outer loop
vertex 63.4549350836704 176.309696783795 1.31579156223138e-006
vertex 62.373647541784 180.022780002062 -1.76247905159244e-015
vertex 71.1035275971404 180.022779970018 6.91527644136602e-007
endloop
endfacet
facet normal -5.88511479513683e-008 -6.36876236576119e-008 -0.999999999999996
outer loop
vertex 63.4549350836704 176.309696783795 1.31579156223138e-006
vertex 71.1035275971404 180.022779970018 6.91527644136602e-007
vertex 63.816706516016 176.459547417552 7.3618385010854e-007
endloop
endfacet
facet normal -5.88511479513683e-008 -6.36876236576119e-008 -0.999999999999996
outer loop
vertex 63.816706516016 176.459547417552 7.3618385010854e-007
vertex 71.1035275971404 180.022779970018 6.91527644136602e-007
vertex 64.2049350836692 176.510658678117 2.12333400395615e-007
endloop
endfacet
facet normal -5.88511479513683e-008 -6.36876236576119e-008 -0.999999999999996
outer loop
vertex 64.2049350836692 176.510658678117 2.12333400395615e-007
vertex 71.1035275971404 180.022779970018 6.91527644136602e-007
vertex 64.5931636513224 176.459547417551 -2.20060244973674e-007
endloop
endfacet
facet normal -5.88511479513683e-008 -6.36876236576119e-008 -0.999999999999996
outer loop
vertex 64.5931636513224 176.459547417551 -2.20060244973674e-007
vertex 71.1035275971404 180.022779970018 6.91527644136602e-007
vertex 64.9549350836681 176.309696783794 -5.31530174413541e-007
endloop
endfacet
facet normal -5.88511479513683e-008 -6.36876236576119e-008 -0.999999999999996
outer loop
vertex 64.9549350836681 176.309696783794 -5.31530174413541e-007
vertex 71.1035275971404 180.022779970018 6.91527644136602e-007
vertex 65.2655952554474 176.071318849897 -7.00850225615612e-007
endloop
endfacet
facet normal -5.88511479513683e-008 -6.36876236576119e-008 -0.999999999999996
outer loop
vertex 65.2655952554474 176.071318849897 -7.00850225615612e-007
vertex 71.1035275971404 180.022779970018 6.91527644136602e-007
vertex 65.5039731893439 175.760658678117 -7.16481516260803e-007
endloop
endfacet
facet normal -5.88511479513683e-008 -6.36876236576119e-008 -0.999999999999996
outer loop
vertex 65.5039731893439 175.760658678117 -7.16481516260803e-007
vertex 71.1035275971404 180.022779970018 6.91527644136602e-007
vertex 65.6538238231006 175.398887245771 -5.77358802952843e-007
endloop
endfacet
facet normal -5.88511479513683e-008 -6.36876236576119e-008 -0.999999999999996
outer loop
vertex 65.6538238231006 175.398887245771 -5.77358802952843e-007
vertex 71.1035275971404 180.022779970018 6.91527644136602e-007
vertex 65.7049350836669 175.010658678118 -2.92963065393059e-007
endloop
endfacet
facet normal -5.88511479513683e-008 -6.36876236576119e-008 -0.999999999999996
outer loop
vertex 65.7049350836669 175.010658678118 -2.92963065393059e-007
vertex 71.1035275971404 180.022779970018 6.91527644136602e-007
vertex 65.7081649968225 172.596700494801 -5.18697584883654e-012
endloop
endfacet
facet normal -5.88511479513683e-008 -6.36876236576119e-008 -0.999999999999996
outer loop
vertex 65.7081649968225 172.596700494801 -5.18697584883654e-012
vertex 71.1035275971404 180.022779970018 6.91527644136602e-007
vertex 71.1035275752005 170.843640924756 -8.47858172559057e-012
endloop
endfacet
facet normal -5.88511479513683e-008 -6.36876236576119e-008 -0.999999999999996
outer loop
vertex 64.9549350836681 173.711620572443 1.79292577921486e-006
vertex 65.7081649968225 172.596700494801 -5.18697584883654e-012
vertex 64.911267507916 173.693532870331 1.58933417128138e-006
endloop
endfacet
facet normal -5.88511479513683e-008 -6.36876236576119e-008 -0.999999999999996
outer loop
vertex 65.7081649968225 172.596700494801 -5.18697584883654e-012
vertex 64.9549350836681 173.711620572443 1.79292577921486e-006
vertex 65.2655952554474 173.949998506339 1.1970601132727e-006
endloop
endfacet
facet normal -5.88511479513683e-008 -6.36876236576119e-008 -0.999999999999996
outer loop
vertex 65.7081649968225 172.596700494801 -5.18697584883654e-012
vertex 65.2655952554474 173.949998506339 1.1970601132727e-006
vertex 65.5039731893439 174.260658678119 6.25543753890456e-007
endloop
endfacet
facet normal -5.88511479513683e-008 -6.36876236576119e-008 -0.999999999999996
outer loop
vertex 65.7081649968225 172.596700494801 -5.18697584883654e-012
vertex 65.5039731893439 174.260658678119 6.25543753890456e-007
vertex 65.6538238231006 174.622430110464 1.17324595175217e-007
endloop
endfacet
facet normal -5.88511479513683e-008 -6.36876236576119e-008 -0.999999999999996
outer loop
vertex 65.7081649968225 172.596700494801 -5.18697584883654e-012
vertex 65.6538238231006 174.622430110464 1.17324595175217e-007
vertex 65.7049350836669 175.010658678118 -2.92963065393059e-007
endloop
endfacet
facet normal -0.500000003156413 0.866025401961092 1.30984350547128e-006
outer loop
vertex 64.9549350836681 183.735863220331 -5.31530174413541e-007
vertex 65.2655966392675 183.974240138206 1.1999979833648
vertex 65.2655952554474 183.974241154228 -7.00850225615612e-007
endloop
endfacet
facet normal -0.707106779924531 0.70710678244715 1.41412177020177e-006
outer loop
vertex 65.2655966392675 183.974240138206 1.1999979833648
vertex 64.9549350836681 183.735863220331 -5.31530174413541e-007
vertex 64.9549364674882 183.735862204309 1.19999815268486
endloop
endfacet
facet normal -0.382683432364918 0.923879532511295 -3.40930762984239e-007
outer loop
vertex 64.9112688917361 173.693533886352 1.2000002735492
vertex 64.9549350836681 173.711620572443 1.79292577921486e-006
vertex 64.911267507916 173.693532870331 1.58933417128138e-006
endloop
endfacet
facet normal -0.499999796568019 0.866025521235901 -1.56659176731489e-007
outer loop
vertex 64.9549350836681 173.711620572443 1.79292577921486e-006
vertex 64.9112688917361 173.693533886352 1.2000002735492
vertex 64.9549364674882 173.711621588465 1.20000047714081
endloop
endfacet
facet normal -0.499999796568152 -0.866025521235825 -1.5665917644255e-007
outer loop
vertex 64.9549350836681 186.333939431681 1.79292577921486e-006
vertex 64.9112688917361 186.352026117772 1.2000002735492
vertex 64.911267507916 186.352027133794 1.58933417128138e-006
endloop
endfacet
facet normal -0.382683432365276 -0.923879532511147 -3.4093076270811e-007
outer loop
vertex 64.9112688917361 186.352026117772 1.2000002735492
vertex 64.9549350836681 186.333939431681 1.79292577921486e-006
vertex 64.9549364674882 186.33393841566 1.20000047714081
endloop
endfacet
facet normal 6.51156161863812e-009 -0.999999999999642 8.46685517485943e-007
outer loop
vertex 64.2049364674893 176.510659694139 1.19999889654843
vertex 63.816706516016 176.459547417552 7.3618385010854e-007
vertex 64.2049350836692 176.510658678117 2.12333400395615e-007
endloop
endfacet
facet normal 0.258819038029766 -0.965925828184068 5.19369271832086e-007
outer loop
vertex 63.816706516016 176.459547417552 7.3618385010854e-007
vertex 64.2049364674893 176.510659694139 1.19999889654843
vertex 63.8167078998361 176.459548433573 1.19999942039888
endloop
endfacet
facet normal -0.965925826849355 -0.258819043008071 1.33302918511159e-006
outer loop
vertex 65.6538252069207 175.398888261792 1.19999810685623
vertex 65.5039731893439 175.760658678117 -7.16481516260803e-007
vertex 65.6538238231006 175.398887245771 -5.77358802952843e-007
endloop
endfacet
facet normal -0.866025403684769 -0.50000000017061 1.42202997581151e-006
outer loop
vertex 65.5039731893439 175.760658678117 -7.16481516260803e-007
vertex 65.6538252069207 175.398888261792 1.19999810685623
vertex 65.503974573164 175.760659694138 1.19999796773351
endloop
endfacet
facet normal 0.809017366962505 0.587784739468917 7.15309083695061e-007
outer loop
vertex 79.0374639826342 183.954815307868 1.58944150167317e-006
vertex 79.8334076086048 182.859289970675 1.20000000000027
vertex 79.8334076086115 182.859289970675 2.70716782324598e-013
endloop
endfacet
facet normal 0.809017366962505 0.587784739468917 7.15309083695061e-007
outer loop
vertex 79.8334076086048 182.859289970675 1.20000000000027
vertex 79.0374639826342 183.954815307868 1.58944150167317e-006
vertex 79.0374625988141 183.954814291846 1.20000027365653
endloop
endfacet
facet normal -0.809017366962515 -0.587784739468904 7.15309084816725e-007
outer loop
vertex 63.1695925515735 176.090745712278 1.20000027365653
vertex 62.3736475417762 177.186270033449 2.7036428651428e-013
vertex 63.1695911677535 176.090744696257 1.58944150061568e-006
endloop
endfacet
facet normal -0.809017366962515 -0.587784739468904 7.15309084816725e-007
outer loop
vertex 62.3736475417762 177.186270033449 2.7036428651428e-013
vertex 63.1695925515735 176.090745712278 1.20000027365653
vertex 62.3736475417829 177.186270033449 1.20000000000027
endloop
endfacet
facet normal -5.88511473693214e-008 6.36876226432391e-008 -0.999999999999996
outer loop
vertex 65.7081649968225 187.448859509323 -5.18697584883654e-012
vertex 64.9549350836681 186.333939431681 1.79292577921486e-006
vertex 64.911267507916 186.352027133794 1.58933417128138e-006
endloop
endfacet
facet normal -5.88511473693214e-008 6.36876226432391e-008 -0.999999999999996
outer loop
vertex 64.9549350836681 186.333939431681 1.79292577921486e-006
vertex 65.7081649968225 187.448859509323 -5.18697584883654e-012
vertex 65.2655952554474 186.095561497785 1.1970601132727e-006
endloop
endfacet
facet normal -5.88511473693214e-008 6.36876226432391e-008 -0.999999999999996
outer loop
vertex 65.2655952554474 186.095561497785 1.1970601132727e-006
vertex 65.7081649968225 187.448859509323 -5.18697584883654e-012
vertex 65.5039731893439 185.784901326006 6.25543753890456e-007
endloop
endfacet
facet normal -5.88511473693214e-008 6.36876226432391e-008 -0.999999999999996
outer loop
vertex 65.5039731893439 185.784901326006 6.25543753890456e-007
vertex 65.7081649968225 187.448859509323 -5.18697584883654e-012
vertex 65.6538238231006 185.42312989366 1.17324595175217e-007
endloop
endfacet
facet normal -5.88511473693214e-008 6.36876226432391e-008 -0.999999999999996
outer loop
vertex 65.6538238231006 185.42312989366 1.17324595175217e-007
vertex 65.7081649968225 187.448859509323 -5.18697584883654e-012
vertex 65.7049350836669 185.034901326007 -2.92963065393059e-007
endloop
endfacet
facet normal -5.88511473693214e-008 6.36876226432391e-008 -0.999999999999996
outer loop
vertex 63.1695911677535 183.954815307868 1.58944149991069e-006
vertex 62.373647541784 180.022780002062 -1.76247905159244e-015
vertex 62.3736475417762 182.859289970675 2.7036428651428e-013
endloop
endfacet
facet normal -5.88511473693214e-008 6.36876226432391e-008 -0.999999999999996
outer loop
vertex 62.373647541784 180.022780002062 -1.76247905159244e-015
vertex 63.1695911677535 183.954815307868 1.58944149991069e-006
vertex 63.4549350836704 183.735863220329 1.31579156223138e-006
endloop
endfacet
facet normal -5.88511473693214e-008 6.36876226432391e-008 -0.999999999999996
outer loop
vertex 62.373647541784 180.022780002062 -1.76247905159244e-015
vertex 63.4549350836704 183.735863220329 1.31579156223138e-006
vertex 71.1035275971404 180.022779970018 6.91527644136602e-007
endloop
endfacet
facet normal -5.88511473693214e-008 6.36876226432391e-008 -0.999999999999996
outer loop
vertex 71.1035275971404 180.022779970018 6.91527644136602e-007
vertex 63.4549350836704 183.735863220329 1.31579156223138e-006
vertex 63.816706516016 183.586012586573 7.36183849403549e-007
endloop
endfacet
facet normal -5.88511473693214e-008 6.36876226432391e-008 -0.999999999999996
outer loop
vertex 71.1035275971404 180.022779970018 6.91527644136602e-007
vertex 63.816706516016 183.586012586573 7.36183849403549e-007
vertex 64.2049350836692 183.534901326007 2.12333400395615e-007
endloop
endfacet
facet normal -5.88511473693214e-008 6.36876226432391e-008 -0.999999999999996
outer loop
vertex 71.1035275971404 180.022779970018 6.91527644136602e-007
vertex 64.2049350836692 183.534901326007 2.12333400395615e-007
vertex 64.5931636513224 183.586012586574 -2.20060244973674e-007
endloop
endfacet
facet normal -5.88511473693214e-008 6.36876226432391e-008 -0.999999999999996
outer loop
vertex 71.1035275971404 180.022779970018 6.91527644136602e-007
vertex 64.5931636513224 183.586012586574 -2.20060244973674e-007
vertex 64.9549350836681 183.735863220331 -5.31530174413541e-007
endloop
endfacet
facet normal -5.88511473693214e-008 6.36876226432391e-008 -0.999999999999996
outer loop
vertex 71.1035275971404 180.022779970018 6.91527644136602e-007
vertex 64.9549350836681 183.735863220331 -5.31530174413541e-007
vertex 65.2655952554474 183.974241154228 -7.00850225615612e-007
endloop
endfacet
facet normal -5.88511473693214e-008 6.36876226432391e-008 -0.999999999999996
outer loop
vertex 71.1035275971404 180.022779970018 6.91527644136602e-007
vertex 65.2655952554474 183.974241154228 -7.00850225615612e-007
vertex 65.5039731893439 184.284901326008 -7.16481516260803e-007
endloop
endfacet
facet normal -5.88511473693214e-008 6.36876226432391e-008 -0.999999999999996
outer loop
vertex 71.1035275971404 180.022779970018 6.91527644136602e-007
vertex 65.5039731893439 184.284901326008 -7.16481516260803e-007
vertex 65.6538238231006 184.646672758354 -5.77358803657835e-007
endloop
endfacet
facet normal -5.88511473693214e-008 6.36876226432391e-008 -0.999999999999996
outer loop
vertex 71.1035275971404 180.022779970018 6.91527644136602e-007
vertex 65.6538238231006 184.646672758354 -5.77358803657835e-007
vertex 65.7049350836669 185.034901326007 -2.92963065393059e-007
endloop
endfacet
facet normal -5.88511473693214e-008 6.36876226432391e-008 -0.999999999999996
outer loop
vertex 71.1035275971404 180.022779970018 6.91527644136602e-007
vertex 65.7049350836669 185.034901326007 -2.92963065393059e-007
vertex 65.7081649968225 187.448859509323 -5.18697584883654e-012
endloop
endfacet
facet normal -5.88511473693214e-008 6.36876226432391e-008 -0.999999999999996
outer loop
vertex 71.1035275971404 180.022779970018 6.91527644136602e-007
vertex 65.7081649968225 187.448859509323 -5.18697584883654e-012
vertex 71.1035275752005 189.201919079369 -8.47822922978025e-012
endloop
endfacet
facet normal 0.707106782447726 -0.707106779923955 1.41412179222458e-006
outer loop
vertex 76.9414598949402 176.071318849897 -7.00850224910621e-007
vertex 76.7030805772237 175.760659694138 1.19999796773351
vertex 76.7030819610438 175.760658678117 -7.16481516613299e-007
endloop
endfacet
facet normal 0.866025403883027 -0.499999999827218 1.42202998906449e-006
outer loop
vertex 76.7030805772237 175.760659694138 1.19999796773351
vertex 76.9414598949402 176.071318849897 -7.00850224910621e-007
vertex 76.9414585111201 176.071319865918 1.1999979833648
endloop
endfacet
facet normal -1.0 -2.75586344153801e-012 5.57947062141684e-012
outer loop
vertex 62.3736475417829 182.859289970675 1.20000000000027
vertex 62.373647541784 180.022780002062 -1.76247905159244e-015
vertex 62.3736475417907 180.022780002062 1.2
endloop
endfacet
facet normal -1.0 -2.75586344153801e-012 5.57947062141684e-012
outer loop
vertex 62.373647541784 180.022780002062 -1.76247905159244e-015
vertex 62.3736475417829 182.859289970675 1.20000000000027
vertex 62.3736475417762 182.859289970675 2.7036428651428e-013
endloop
endfacet
facet normal 0.965925827721712 0.258819039754276 8.94752503920537e-007
outer loop
vertex 76.553231327287 174.622430110464 1.17324595527712e-007
vertex 76.7030805772237 174.26065969414 1.19999930975878
vertex 76.7030819610438 174.260658678119 6.25543753890456e-007
endloop
endfacet
facet normal 0.866025400428885 0.500000005811658 5.75344423029001e-007
outer loop
vertex 76.7030805772237 174.26065969414 1.19999930975878
vertex 76.553231327287 174.622430110464 1.17324595527712e-007
vertex 76.553229943467 174.622431126486 1.19999880153963
endloop
endfacet
facet normal -0.499999996843036 -0.866025405606123 1.30984350299842e-006
outer loop
vertex 64.9549364674882 176.309697799815 1.19999815268486
vertex 64.5931636513224 176.459547417551 -2.20060244973674e-007
vertex 64.9549350836681 176.309696783794 -5.31530174413541e-007
endloop
endfacet
facet normal -0.258819050180752 -0.965925824927715 1.1163015733089e-006
outer loop
vertex 64.5931636513224 176.459547417551 -2.20060244973674e-007
vertex 64.9549364674882 176.309697799815 1.19999815268486
vertex 64.5931650351425 176.459548433572 1.19999846415478
endloop
endfacet
facet normal 0.965925825727533 -0.258819047194767 1.33302919373758e-006
outer loop
vertex 76.553231327287 175.398887245771 -5.77358802600347e-007
vertex 76.5021186829006 175.010659694139 1.19999839125196
vertex 76.5021200667207 175.010658678118 -2.92963065393059e-007
endloop
endfacet
facet normal 0.999999999999335 3.98945154826598e-009 1.15318465620993e-006
outer loop
vertex 76.5021186829006 175.010659694139 1.19999839125196
vertex 76.553231327287 175.398887245771 -5.77358802600347e-007
vertex 76.553229943467 175.398888261792 1.19999810685623
endloop
endfacet
facet normal 0.70710677593601 0.707106786437051 2.16727583171073e-007
outer loop
vertex 76.9414585111201 173.949999522361 1.19999988127514
vertex 77.2521200667196 173.711620572443 1.79292577956736e-006
vertex 76.9414598949402 173.949998506339 1.19706011362519e-006
endloop
endfacet
facet normal 0.499999796567978 0.866025521235925 -1.56659190324376e-007
outer loop
vertex 77.2521200667196 173.711620572443 1.79292577956736e-006
vertex 76.9414585111201 173.949999522361 1.19999988127514
vertex 77.2521186828995 173.711621588465 1.20000047714081
endloop
endfacet
facet normal 0.86602540368477 0.50000000017061 1.42202997341746e-006
outer loop
vertex 76.7030819610438 184.284901326008 -7.16481516260803e-007
vertex 76.553229943467 184.646671742332 1.19999810685623
vertex 76.7030805772237 184.284900309986 1.19999796773351
endloop
endfacet
facet normal 0.96592582684935 0.258819043008088 1.33302918255123e-006
outer loop
vertex 76.553229943467 184.646671742332 1.19999810685623
vertex 76.7030819610438 184.284901326008 -7.16481516260803e-007
vertex 76.553231327287 184.646672758354 -5.77358802600347e-007
endloop
endfacet
facet normal 0.866025403684769 -0.500000000170611 1.42202998912661e-006
outer loop
vertex 76.7030819610438 175.760658678117 -7.16481516613299e-007
vertex 76.553229943467 175.398888261792 1.19999810685623
vertex 76.553231327287 175.398887245771 -5.77358802600347e-007
endloop
endfacet
facet normal 0.965925826849349 -0.25881904300809 1.33302919148645e-006
outer loop
vertex 76.553229943467 175.398888261792 1.19999810685623
vertex 76.7030819610438 175.760658678117 -7.16481516613299e-007
vertex 76.7030805772237 175.760659694138 1.19999796773351
endloop
endfacet
facet normal 0.499999796568188 -0.866025521235804 -1.56659177088668e-007
outer loop
vertex 77.2521200667196 186.333939431681 1.79292577956736e-006
vertex 76.9414585111201 186.095560481764 1.19999988127514
vertex 76.9414598949402 186.095561497785 1.19706011362519e-006
endloop
endfacet
facet normal 0.707106775935998 -0.707106786437064 2.16727607188079e-007
outer loop
vertex 76.9414585111201 186.095560481764 1.19999988127514
vertex 77.2521200667196 186.333939431681 1.79292577956736e-006
vertex 77.2521186828995 186.33393841566 1.20000047714081
endloop
endfacet
facet normal -0.500000021001961 -0.866025391658936 1.56658823721936e-007
outer loop
vertex 78.7521200667173 176.309696783795 1.31579156258388e-006
vertex 78.3903472505515 176.459548433573 1.19999942039888
vertex 78.3903486343716 176.459547417552 7.36183850813532e-007
endloop
endfacet
facet normal -0.258819052174826 -0.96592582439391 5.19369284338801e-007
outer loop
vertex 78.3903472505515 176.459548433573 1.19999942039888
vertex 78.7521200667173 176.309696783795 1.31579156258388e-006
vertex 78.7521186828972 176.309697799817 1.20000000000659
endloop
endfacet
facet normal -1.0 2.75580207429004e-012 5.57947062142139e-012
outer loop
vertex 62.3736475417907 180.022780002062 1.2
vertex 62.3736475417762 177.186270033449 2.7036428651428e-013
vertex 62.3736475417829 177.186270033449 1.20000000000027
endloop
endfacet
facet normal -1.0 2.75580207429004e-012 5.57947062142139e-012
outer loop
vertex 62.3736475417762 177.186270033449 2.7036428651428e-013
vertex 62.3736475417907 180.022780002062 1.2
vertex 62.373647541784 180.022780002062 -1.76247905159244e-015
endloop
endfacet
facet normal -0.258819038029747 -0.965925828184073 5.19369303859765e-007
outer loop
vertex 78.3903486343716 176.459547417552 7.36183850813532e-007
vertex 78.0021186828983 176.510659694139 1.19999889654843
vertex 78.0021200667184 176.510658678117 2.1233340074811e-007
endloop
endfacet
facet normal -6.51154822523998e-009 -0.999999999999642 8.46685549768554e-007
outer loop
vertex 78.0021186828983 176.510659694139 1.19999889654843
vertex 78.3903486343716 176.459547417552 7.36183850813532e-007
vertex 78.3903472505515 176.459548433573 1.19999942039888
endloop
endfacet
facet normal 5.88511486899645e-008 -6.36876239451871e-008 -0.999999999999996
outer loop
vertex 71.1035275971404 180.022779970018 6.91527644136602e-007
vertex 76.4988901535651 172.596700494801 -5.18732834464686e-012
vertex 71.1035275752005 170.843640924756 -8.47858172559057e-012
endloop
endfacet
facet normal 5.88511486899645e-008 -6.36876239451871e-008 -0.999999999999996
outer loop
vertex 76.4988901535651 172.596700494801 -5.18732834464686e-012
vertex 71.1035275971404 180.022779970018 6.91527644136602e-007
vertex 76.5021200667207 175.010658678118 -2.92963065393059e-007
endloop
endfacet
facet normal 5.88511486899645e-008 -6.36876239451871e-008 -0.999999999999996
outer loop
vertex 76.5021200667207 175.010658678118 -2.92963065393059e-007
vertex 71.1035275971404 180.022779970018 6.91527644136602e-007
vertex 76.553231327287 175.398887245771 -5.77358802600347e-007
endloop
endfacet
facet normal 5.88511486899645e-008 -6.36876239451871e-008 -0.999999999999996
outer loop
vertex 76.553231327287 175.398887245771 -5.77358802600347e-007
vertex 71.1035275971404 180.022779970018 6.91527644136602e-007
vertex 76.7030819610438 175.760658678117 -7.16481516613299e-007
endloop
endfacet
facet normal 5.88511486899645e-008 -6.36876239451871e-008 -0.999999999999996
outer loop
vertex 76.7030819610438 175.760658678117 -7.16481516613299e-007
vertex 71.1035275971404 180.022779970018 6.91527644136602e-007
vertex 79.8334076086037 180.022780002062 -1.05748743095546e-015
endloop
endfacet
facet normal 5.88511486899645e-008 -6.36876239451871e-008 -0.999999999999996
outer loop
vertex 76.7030819610438 175.760658678117 -7.16481516613299e-007
vertex 79.8334076086037 180.022780002062 -1.05748743095546e-015
vertex 76.9414598949402 176.071318849897 -7.00850224910621e-007
endloop
endfacet
facet normal 5.88511486899645e-008 -6.36876239451871e-008 -0.999999999999996
outer loop
vertex 76.9414598949402 176.071318849897 -7.00850224910621e-007
vertex 79.8334076086037 180.022780002062 -1.05748743095546e-015
vertex 77.2521200667196 176.309696783794 -5.3153017370855e-007
endloop
endfacet
facet normal 5.88511486899645e-008 -6.36876239451871e-008 -0.999999999999996
outer loop
vertex 77.2521200667196 176.309696783794 -5.3153017370855e-007
vertex 79.8334076086037 180.022780002062 -1.05748743095546e-015
vertex 77.6138914990652 176.459547417551 -2.20060244973674e-007
endloop
endfacet
facet normal 5.88511486899645e-008 -6.36876239451871e-008 -0.999999999999996
outer loop
vertex 77.6138914990652 176.459547417551 -2.20060244973674e-007
vertex 79.8334076086037 180.022780002062 -1.05748743095546e-015
vertex 78.0021200667184 176.510658678117 2.1233340074811e-007
endloop
endfacet
facet normal 5.88511486899645e-008 -6.36876239451871e-008 -0.999999999999996
outer loop
vertex 78.0021200667184 176.510658678117 2.1233340074811e-007
vertex 79.8334076086037 180.022780002062 -1.05748743095546e-015
vertex 78.3903486343716 176.459547417552 7.36183850813532e-007
endloop
endfacet
facet normal 5.88511486899645e-008 -6.36876239451871e-008 -0.999999999999996
outer loop
vertex 78.3903486343716 176.459547417552 7.36183850813532e-007
vertex 79.8334076086037 180.022780002062 -1.05748743095546e-015
vertex 78.7521200667173 176.309696783795 1.31579156258388e-006
endloop
endfacet
facet normal 5.88511486899645e-008 -6.36876239451871e-008 -0.999999999999996
outer loop
vertex 78.7521200667173 176.309696783795 1.31579156258388e-006
vertex 79.8334076086037 180.022780002062 -1.05748743095546e-015
vertex 79.0374639826342 176.090744696257 1.58944150132068e-006
endloop
endfacet
facet normal 5.88511486899645e-008 -6.36876239451871e-008 -0.999999999999996
outer loop
vertex 79.0374639826342 176.090744696257 1.58944150132068e-006
vertex 79.8334076086037 180.022780002062 -1.05748743095546e-015
vertex 79.8334076086115 177.186270033449 2.70716782324598e-013
endloop
endfacet
facet normal 5.88511486899645e-008 -6.36876239451871e-008 -0.999999999999996
outer loop
vertex 76.4988901535651 172.596700494801 -5.18732834464686e-012
vertex 77.2521200667196 173.711620572443 1.79292577956736e-006
vertex 77.2957876424716 173.693532870331 1.58933417163387e-006
endloop
endfacet
facet normal 5.88511486899645e-008 -6.36876239451871e-008 -0.999999999999996
outer loop
vertex 77.2521200667196 173.711620572443 1.79292577956736e-006
vertex 76.4988901535651 172.596700494801 -5.18732834464686e-012
vertex 76.9414598949402 173.949998506339 1.19706011362519e-006
endloop
endfacet
facet normal 5.88511486899645e-008 -6.36876239451871e-008 -0.999999999999996
outer loop
vertex 76.9414598949402 173.949998506339 1.19706011362519e-006
vertex 76.4988901535651 172.596700494801 -5.18732834464686e-012
vertex 76.7030819610438 174.260658678119 6.25543753890456e-007
endloop
endfacet
facet normal 5.88511486899645e-008 -6.36876239451871e-008 -0.999999999999996
outer loop
vertex 76.7030819610438 174.260658678119 6.25543753890456e-007
vertex 76.4988901535651 172.596700494801 -5.18732834464686e-012
vertex 76.553231327287 174.622430110464 1.17324595527712e-007
endloop
endfacet
facet normal 5.88511486899645e-008 -6.36876239451871e-008 -0.999999999999996
outer loop
vertex 76.553231327287 174.622430110464 1.17324595527712e-007
vertex 76.4988901535651 172.596700494801 -5.18732834464686e-012
vertex 76.5021200667207 175.010658678118 -2.92963065393059e-007
endloop
endfacet
facet normal 0.809016622234922 -0.587785764498499 7.15309090110839e-007
outer loop
vertex 76.4988901535651 172.596700494801 -5.18732834464686e-012
vertex 77.2957862586516 173.693533886352 1.2000002735492
vertex 76.4988901535584 172.596700494801 1.19999999999481
endloop
endfacet
facet normal 0.809016622234922 -0.587785764498499 7.15309090110839e-007
outer loop
vertex 77.2957862586516 173.693533886352 1.2000002735492
vertex 76.4988901535651 172.596700494801 -5.18732834464686e-012
vertex 77.2957876424716 173.693532870331 1.58933417163387e-006
endloop
endfacet
facet normal 0.500000003156393 -0.866025401961104 1.30984353351039e-006
outer loop
vertex 77.2521200667196 176.309696783794 -5.3153017370855e-007
vertex 76.9414585111201 176.071319865918 1.1999979833648
vertex 76.9414598949402 176.071318849897 -7.00850224910621e-007
endloop
endfacet
facet normal 0.707106779924514 -0.707106782447167 1.41412179145122e-006
outer loop
vertex 76.9414585111201 176.071319865918 1.1999979833648
vertex 77.2521200667196 176.309696783794 -5.3153017370855e-007
vertex 77.2521186828995 176.309697799815 1.19999815268486
endloop
endfacet
facet normal 0.999999999999335 3.98738063153507e-009 1.15318466469759e-006
outer loop
vertex 76.5021200667207 185.034901326007 -2.92963065745555e-007
vertex 76.5532299434669 185.423128877639 1.19999880153962
vertex 76.5021186829006 185.034900309985 1.19999839125196
endloop
endfacet
facet normal 0.96592582485511 -0.258819050452578 8.94752503842449e-007
outer loop
vertex 76.5532299434669 185.423128877639 1.19999880153962
vertex 76.5021200667207 185.034901326007 -2.92963065745555e-007
vertex 76.553231327287 185.42312989366 1.17324595527712e-007
endloop
endfacet
facet normal 6.51171424660402e-009 -0.999999999999642 8.46685564786781e-007
outer loop
vertex 78.0021200667184 176.510658678117 2.1233340074811e-007
vertex 77.6138901152452 176.459548433572 1.19999846415478
vertex 77.6138914990652 176.459547417551 -2.20060244973674e-007
endloop
endfacet
facet normal 0.258819040024084 -0.965925827649186 1.11630159423744e-006
outer loop
vertex 77.6138901152452 176.459548433572 1.19999846415478
vertex 78.0021200667184 176.510658678117 2.1233340074811e-007
vertex 78.0021186828983 176.510659694139 1.19999889654843
endloop
endfacet
facet normal 0.707106782447737 0.707106779923944 1.41412177137853e-006
outer loop
vertex 76.9414598949402 183.974241154228 -7.00850224558125e-007
vertex 76.7030805772237 184.284900309986 1.19999796773351
vertex 76.9414585111201 183.974240138206 1.1999979833648
endloop
endfacet
facet normal 0.866025403883027 0.499999999827217 1.42202997335534e-006
outer loop
vertex 76.7030805772237 184.284900309986 1.19999796773351
vertex 76.9414598949402 183.974241154228 -7.00850224558125e-007
vertex 76.7030819610438 184.284901326008 -7.16481516260803e-007
endloop
endfacet
facet normal -0.866025400428894 -0.500000005811642 5.75344442275608e-007
outer loop
vertex 65.503974573164 185.784900309984 1.19999930975878
vertex 65.6538238231006 185.42312989366 1.17324595175217e-007
vertex 65.6538252069207 185.423128877639 1.19999880153962
endloop
endfacet
facet normal -0.965925827721709 -0.258819039754287 8.94752514500807e-007
outer loop
vertex 65.6538238231006 185.42312989366 1.17324595175217e-007
vertex 65.503974573164 185.784900309984 1.19999930975878
vertex 65.5039731893439 185.784901326006 6.25543753890456e-007
endloop
endfacet
facet normal 0.809017366962516 -0.587784739468903 7.15309085581887e-007
outer loop
vertex 79.8334076086115 177.186270033449 2.70716782324598e-013
vertex 79.0374625988141 176.090745712278 1.20000027365653
vertex 79.0374639826342 176.090744696257 1.58944150132068e-006
endloop
endfacet
facet normal 0.809017366962516 -0.587784739468903 7.15309085581887e-007
outer loop
vertex 79.0374625988141 176.090745712278 1.20000027365653
vertex 79.8334076086115 177.186270033449 2.70716782324598e-013
vertex 79.8334076086048 177.186270033449 1.20000000000027
endloop
endfacet
facet normal 0.309016994377621 -0.951056516294285 1.6878772608922e-012
outer loop
vertex 76.4988901535651 172.596700494801 -5.18732834464686e-012
vertex 71.1035275751938 170.843640924756 1.19999999999152
vertex 71.1035275752005 170.843640924756 -8.47858172559057e-012
endloop
endfacet
facet normal 0.309016994377621 -0.951056516294285 1.6878772608922e-012
outer loop
vertex 71.1035275751938 170.843640924756 1.19999999999152
vertex 76.4988901535651 172.596700494801 -5.18732834464686e-012
vertex 76.4988901535584 172.596700494801 1.19999999999481
endloop
endfacet
facet normal 0.866025407138773 0.499999994189791 5.75344440606808e-007
outer loop
vertex 76.7030819610438 174.260658678119 6.25543753890456e-007
vertex 76.9414585111201 173.949999522361 1.19999988127514
vertex 76.9414598949402 173.949998506339 1.19706011362519e-006
endloop
endfacet
facet normal 0.70710677593601 0.707106786437051 2.16727583171073e-007
outer loop
vertex 76.9414585111201 173.949999522361 1.19999988127514
vertex 76.7030819610438 174.260658678119 6.25543753890456e-007
vertex 76.7030805772237 174.26065969414 1.19999930975878
endloop
endfacet
facet normal -0.707106775936013 0.707106786437049 2.16727608307461e-007
outer loop
vertex 65.2655966392675 173.949999522361 1.19999988127514
vertex 65.5039731893439 174.260658678119 6.25543753890456e-007
vertex 65.2655952554474 173.949998506339 1.1970601132727e-006
endloop
endfacet
facet normal -0.866025407138775 0.499999994189789 5.75344460675038e-007
outer loop
vertex 65.5039731893439 174.260658678119 6.25543753890456e-007
vertex 65.2655966392675 173.949999522361 1.19999988127514
vertex 65.503974573164 174.26065969414 1.19999930975878
endloop
endfacet
facet normal -0.707106775935993 -0.707106786437069 2.16727608598649e-007
outer loop
vertex 65.2655966392675 186.095560481764 1.19999988127514
vertex 65.5039731893439 185.784901326006 6.25543753890456e-007
vertex 65.503974573164 185.784900309984 1.19999930975878
endloop
endfacet
facet normal -0.866025407138782 -0.499999994189776 5.75344459853413e-007
outer loop
vertex 65.5039731893439 185.784901326006 6.25543753890456e-007
vertex 65.2655966392675 186.095560481764 1.19999988127514
vertex 65.2655952554474 186.095561497785 1.1970601132727e-006
endloop
endfacet
facet normal 0.258819050180743 -0.965925824927718 1.11630160364572e-006
outer loop
vertex 77.6138914990652 176.459547417551 -2.20060244973674e-007
vertex 77.2521186828995 176.309697799815 1.19999815268486
vertex 77.2521200667196 176.309696783794 -5.3153017370855e-007
endloop
endfacet
facet normal 0.499999996843019 -0.866025405606132 1.3098435293161e-006
outer loop
vertex 77.2521186828995 176.309697799815 1.19999815268486
vertex 77.6138914990652 176.459547417551 -2.20060244973674e-007
vertex 77.6138901152452 176.459548433572 1.19999846415478
endloop
endfacet
facet normal 0.258819040024074 0.965925827649189 1.11630156324944e-006
outer loop
vertex 77.6138901152452 183.586011570552 1.19999846415478
vertex 78.0021200667184 183.534901326007 2.12333401100606e-007
vertex 77.6138914990652 183.586012586574 -2.20060244973674e-007
endloop
endfacet
facet normal 6.51172791624666e-009 0.999999999999642 8.46685532561463e-007
outer loop
vertex 78.0021200667184 183.534901326007 2.12333401100606e-007
vertex 77.6138901152452 183.586011570552 1.19999846415478
vertex 78.0021186828983 183.534900309986 1.19999889654843
endloop
endfacet
facet normal 0.809016622234927 0.587785764498493 7.15309090121295e-007
outer loop
vertex 77.2957876424716 186.352027133794 1.58933417163387e-006
vertex 76.4988901535584 187.448859509324 1.19999999999481
vertex 77.2957862586516 186.352026117772 1.2000002735492
endloop
endfacet
facet normal 0.809016622234927 0.587785764498493 7.15309090121295e-007
outer loop
vertex 76.4988901535584 187.448859509324 1.19999999999481
vertex 77.2957876424716 186.352027133794 1.58933417163387e-006
vertex 76.4988901535651 187.448859509323 -5.18697584883654e-012
endloop
endfacet
facet normal -0.965925826849354 0.258819043008074 1.33302918524857e-006
outer loop
vertex 65.6538252069207 184.646671742332 1.19999810685623
vertex 65.5039731893439 184.284901326008 -7.16481516260803e-007
vertex 65.503974573164 184.284900309986 1.19999796773351
endloop
endfacet
facet normal -0.866025403684767 0.500000000170614 1.42202997588044e-006
outer loop
vertex 65.5039731893439 184.284901326008 -7.16481516260803e-007
vertex 65.6538252069207 184.646671742332 1.19999810685623
vertex 65.6538238231006 184.646672758354 -5.77358803657835e-007
endloop
endfacet
facet normal -0.499999978997249 0.866025415910368 1.56658879893894e-007
outer loop
vertex 78.7521186828972 183.735862204308 1.20000000000659
vertex 79.0374639826342 183.954815307868 1.58944150167317e-006
vertex 78.7521200667173 183.735863220329 1.31579156187889e-006
endloop
endfacet
facet normal -0.608761429008216 0.793353340291622 -3.02935499890539e-008
outer loop
vertex 79.0374639826342 183.954815307868 1.58944150167317e-006
vertex 78.7521186828972 183.735862204308 1.20000000000659
vertex 79.0374625988141 183.954814291846 1.20000027365653
endloop
endfacet
facet normal 0.965925825727534 0.258819047194764 1.33302918480237e-006
outer loop
vertex 76.553231327287 184.646672758354 -5.77358802600347e-007
vertex 76.5021186829006 185.034900309985 1.19999839125196
vertex 76.553229943467 184.646671742332 1.19999810685623
endloop
endfacet
facet normal 0.999999999999335 -3.98945840982054e-009 1.15318465794371e-006
outer loop
vertex 76.5021186829006 185.034900309985 1.19999839125196
vertex 76.553231327287 184.646672758354 -5.77358802600347e-007
vertex 76.5021200667207 185.034901326007 -2.92963065745555e-007
endloop
endfacet
facet normal -0.608761429008251 -0.793353340291595 -3.02935532418398e-008
outer loop
vertex 79.0374639826342 176.090744696257 1.58944150132068e-006
vertex 78.7521186828972 176.309697799817 1.20000000000659
vertex 78.7521200667173 176.309696783795 1.31579156258388e-006
endloop
endfacet
facet normal -0.499999978997254 -0.866025415910366 1.56658892694459e-007
outer loop
vertex 78.7521186828972 176.309697799817 1.20000000000659
vertex 79.0374639826342 176.090744696257 1.58944150132068e-006
vertex 79.0374625988141 176.090745712278 1.20000027365653
endloop
endfacet
facet normal -0.866025403883024 0.499999999827223 1.42202997581832e-006
outer loop
vertex 65.503974573164 184.284900309986 1.19999796773351
vertex 65.2655952554474 183.974241154228 -7.00850225615612e-007
vertex 65.2655966392675 183.974240138206 1.1999979833648
endloop
endfacet
facet normal -0.707106782447741 0.70710677992394 1.41412177097513e-006
outer loop
vertex 65.2655952554474 183.974241154228 -7.00850225615612e-007
vertex 65.503974573164 184.284900309986 1.19999796773351
vertex 65.5039731893439 184.284901326008 -7.16481516260803e-007
endloop
endfacet
facet normal 1.0 -2.75580207426939e-012 5.57819676119761e-012
outer loop
vertex 79.8334076086037 180.022780002062 -1.05748743095546e-015
vertex 79.8334076086048 182.859289970675 1.20000000000027
vertex 79.833407608597 180.022780002062 1.2
endloop
endfacet
facet normal 1.0 -2.75580207426939e-012 5.57819676119761e-012
outer loop
vertex 79.8334076086048 182.859289970675 1.20000000000027
vertex 79.8334076086037 180.022780002062 -1.05748743095546e-015
vertex 79.8334076086115 182.859289970675 2.70716782324598e-013
endloop
endfacet
facet normal -8.87748469052757e-009 4.20381558593904e-008 0.999999999999999
outer loop
vertex 76.4988901535584 172.596700494801 1.19999999999481
vertex 76.553229943467 174.622431126486 1.19999880153963
vertex 76.5021186829006 175.010659694139 1.19999839125196
endloop
endfacet
facet normal -8.87748469052757e-009 4.20381558593904e-008 0.999999999999999
outer loop
vertex 76.553229943467 174.622431126486 1.19999880153963
vertex 76.4988901535584 172.596700494801 1.19999999999481
vertex 76.7030805772237 174.26065969414 1.19999930975878
endloop
endfacet
facet normal -8.87748469052757e-009 4.20381558593904e-008 0.999999999999999
outer loop
vertex 76.7030805772237 174.26065969414 1.19999930975878
vertex 76.4988901535584 172.596700494801 1.19999999999481
vertex 76.9414585111201 173.949999522361 1.19999988127514
endloop
endfacet
facet normal -8.87748469052757e-009 4.20381558593904e-008 0.999999999999999
outer loop
vertex 76.9414585111201 173.949999522361 1.19999988127514
vertex 76.4988901535584 172.596700494801 1.19999999999481
vertex 77.2521186828995 173.711621588465 1.20000047714081
endloop
endfacet
facet normal -8.87748469052757e-009 4.20381558593904e-008 0.999999999999999
outer loop
vertex 77.2521186828995 173.711621588465 1.20000047714081
vertex 76.4988901535584 172.596700494801 1.19999999999481
vertex 77.2957862586516 173.693533886352 1.2000002735492
endloop
endfacet
facet normal -8.87748469052757e-009 4.20381558593904e-008 0.999999999999999
outer loop
vertex 76.4988901535584 172.596700494801 1.19999999999481
vertex 71.1035275751938 180.022780002062 1.2
vertex 71.1035275751938 170.843640924756 1.19999999999152
endloop
endfacet
facet normal -8.87748469052757e-009 4.20381558593904e-008 0.999999999999999
outer loop
vertex 71.1035275751938 180.022780002062 1.2
vertex 76.4988901535584 172.596700494801 1.19999999999481
vertex 76.5021186829006 175.010659694139 1.19999839125196
endloop
endfacet
facet normal -8.87748469052757e-009 4.20381558593904e-008 0.999999999999999
outer loop
vertex 71.1035275751938 180.022780002062 1.2
vertex 76.5021186829006 175.010659694139 1.19999839125196
vertex 76.553229943467 175.398888261792 1.19999810685623
endloop
endfacet
facet normal -8.87748469052757e-009 4.20381558593904e-008 0.999999999999999
outer loop
vertex 71.1035275751938 180.022780002062 1.2
vertex 76.553229943467 175.398888261792 1.19999810685623
vertex 76.7030805772237 175.760659694138 1.19999796773351
endloop
endfacet
facet normal -8.87748469052757e-009 4.20381558593904e-008 0.999999999999999
outer loop
vertex 71.1035275751938 180.022780002062 1.2
vertex 76.7030805772237 175.760659694138 1.19999796773351
vertex 79.833407608597 180.022780002062 1.2
endloop
endfacet
facet normal -8.87748469052757e-009 4.20381558593904e-008 0.999999999999999
outer loop
vertex 79.833407608597 180.022780002062 1.2
vertex 76.7030805772237 175.760659694138 1.19999796773351
vertex 76.9414585111201 176.071319865918 1.1999979833648
endloop
endfacet
facet normal -8.87748469052757e-009 4.20381558593904e-008 0.999999999999999
outer loop
vertex 79.833407608597 180.022780002062 1.2
vertex 76.9414585111201 176.071319865918 1.1999979833648
vertex 77.2521186828995 176.309697799815 1.19999815268486
endloop
endfacet
facet normal -8.87748469052757e-009 4.20381558593904e-008 0.999999999999999
outer loop
vertex 79.833407608597 180.022780002062 1.2
vertex 77.2521186828995 176.309697799815 1.19999815268486
vertex 77.6138901152452 176.459548433572 1.19999846415478
endloop
endfacet
facet normal -8.87748469052757e-009 4.20381558593904e-008 0.999999999999999
outer loop
vertex 79.833407608597 180.022780002062 1.2
vertex 77.6138901152452 176.459548433572 1.19999846415478
vertex 78.0021186828983 176.510659694139 1.19999889654843
endloop
endfacet
facet normal -8.87748469052757e-009 4.20381558593904e-008 0.999999999999999
outer loop
vertex 79.833407608597 180.022780002062 1.2
vertex 78.0021186828983 176.510659694139 1.19999889654843
vertex 78.3903472505515 176.459548433573 1.19999942039888
endloop
endfacet
facet normal -8.87748469052757e-009 4.20381558593904e-008 0.999999999999999
outer loop
vertex 79.833407608597 180.022780002062 1.2
vertex 78.3903472505515 176.459548433573 1.19999942039888
vertex 78.7521186828972 176.309697799817 1.20000000000659
endloop
endfacet
facet normal -8.87748469052757e-009 4.20381558593904e-008 0.999999999999999
outer loop
vertex 79.833407608597 180.022780002062 1.2
vertex 78.7521186828972 176.309697799817 1.20000000000659
vertex 79.0374625988141 176.090745712278 1.20000027365653
endloop
endfacet
facet normal -8.87748469052757e-009 4.20381558593904e-008 0.999999999999999
outer loop
vertex 79.833407608597 180.022780002062 1.2
vertex 79.0374625988141 176.090745712278 1.20000027365653
vertex 79.8334076086048 177.186270033449 1.20000000000027
endloop
endfacet
facet normal 1.0 2.75586344151721e-012 5.57819676119327e-012
outer loop
vertex 79.8334076086115 177.186270033449 2.70716782324598e-013
vertex 79.833407608597 180.022780002062 1.2
vertex 79.8334076086048 177.186270033449 1.20000000000027
endloop
endfacet
facet normal 1.0 2.75586344151721e-012 5.57819676119327e-012
outer loop
vertex 79.833407608597 180.022780002062 1.2
vertex 79.8334076086115 177.186270033449 2.70716782324598e-013
vertex 79.8334076086037 180.022780002062 -1.05748743095546e-015
endloop
endfacet
facet normal 0.965925827721713 -0.258819039754271 8.94752516206272e-007
outer loop
vertex 76.553231327287 185.42312989366 1.17324595527712e-007
vertex 76.7030805772237 185.784900309984 1.19999930975878
vertex 76.5532299434669 185.423128877639 1.19999880153962
endloop
endfacet
facet normal 0.866025400428878 -0.500000005811671 5.75344441741823e-007
outer loop
vertex 76.7030805772237 185.784900309984 1.19999930975878
vertex 76.553231327287 185.42312989366 1.17324595527712e-007
vertex 76.7030819610438 185.784901326006 6.25543753890456e-007
endloop
endfacet
facet normal 0.382683432365261 -0.923879532511153 -3.40930762724172e-007
outer loop
vertex 77.2957862586516 186.352026117772 1.2000002735492
vertex 77.2521200667196 186.333939431681 1.79292577956736e-006
vertex 77.2957876424716 186.352027133794 1.58933417163387e-006
endloop
endfacet
facet normal 0.499999796568188 -0.866025521235804 -1.56659177088668e-007
outer loop
vertex 77.2521200667196 186.333939431681 1.79292577956736e-006
vertex 77.2957862586516 186.352026117772 1.2000002735492
vertex 77.2521186828995 186.33393841566 1.20000047714081
endloop
endfacet
facet normal -0.809017366962513 0.587784739468907 7.15309081059834e-007
outer loop
vertex 62.3736475417829 182.859289970675 1.20000000000027
vertex 63.1695911677535 183.954815307868 1.58944149991069e-006
vertex 62.3736475417762 182.859289970675 2.7036428651428e-013
endloop
endfacet
facet normal -0.809017366962513 0.587784739468907 7.15309081059834e-007
outer loop
vertex 63.1695911677535 183.954815307868 1.58944149991069e-006
vertex 62.3736475417829 182.859289970675 1.20000000000027
vertex 63.1695925515735 183.954814291846 1.20000027365653
endloop
endfacet
facet normal 0.499999978997243 -0.866025415910372 1.56658877442074e-007
outer loop
vertex 63.4549364674904 176.309697799817 1.20000000000659
vertex 63.1695911677535 176.090744696257 1.58944150061568e-006
vertex 63.4549350836704 176.309696783795 1.31579156223138e-006
endloop
endfacet
facet normal 0.608761429008236 -0.793353340291606 -3.0293552410673e-008
outer loop
vertex 63.1695911677535 176.090744696257 1.58944150061568e-006
vertex 63.4549364674904 176.309697799817 1.20000000000659
vertex 63.1695925515735 176.090745712278 1.20000027365653
endloop
endfacet
facet normal -0.999999999999335 -3.98944421442258e-009 1.15318465732419e-006
outer loop
vertex 65.704936467487 185.034900309985 1.19999839125196
vertex 65.6538238231006 184.646672758354 -5.77358803657835e-007
vertex 65.6538252069207 184.646671742332 1.19999810685623
endloop
endfacet
facet normal -0.965925825727537 0.258819047194751 1.33302918749971e-006
outer loop
vertex 65.6538238231006 184.646672758354 -5.77358803657835e-007
vertex 65.704936467487 185.034900309985 1.19999839125196
vertex 65.7049350836669 185.034901326007 -2.92963065393059e-007
endloop
endfacet
facet normal 0.309016994377615 0.951056516294287 1.68795833494619e-012
outer loop
vertex 71.1035275751938 189.201919079369 1.19999999999152
vertex 76.4988901535651 187.448859509323 -5.18697584883654e-012
vertex 71.1035275752005 189.201919079369 -8.47822922978025e-012
endloop
endfacet
facet normal 0.309016994377615 0.951056516294287 1.68795833494619e-012
outer loop
vertex 76.4988901535651 187.448859509323 -5.18697584883654e-012
vertex 71.1035275751938 189.201919079369 1.19999999999152
vertex 76.4988901535584 187.448859509324 1.19999999999481
endloop
endfacet
facet normal -0.707106775935993 -0.707106786437069 2.16727608598649e-007
outer loop
vertex 65.2655966392675 186.095560481764 1.19999988127514
vertex 64.9549350836681 186.333939431681 1.79292577921486e-006
vertex 65.2655952554474 186.095561497785 1.1970601132727e-006
endloop
endfacet
facet normal -0.499999796568152 -0.866025521235825 -1.5665917644255e-007
outer loop
vertex 64.9549350836681 186.333939431681 1.79292577921486e-006
vertex 65.2655966392675 186.095560481764 1.19999988127514
vertex 64.9549364674882 186.33393841566 1.20000047714081
endloop
endfacet
facet normal -0.499999796568019 0.866025521235901 -1.56659176731489e-007
outer loop
vertex 64.9549350836681 173.711620572443 1.79292577921486e-006
vertex 65.2655966392675 173.949999522361 1.19999988127514
vertex 65.2655952554474 173.949998506339 1.1970601132727e-006
endloop
endfacet
facet normal -0.707106775936013 0.707106786437049 2.16727608307461e-007
outer loop
vertex 65.2655966392675 173.949999522361 1.19999988127514
vertex 64.9549350836681 173.711620572443 1.79292577921486e-006
vertex 64.9549364674882 173.711621588465 1.20000047714081
endloop
endfacet
facet normal 5.88511481339839e-008 6.36876229287796e-008 -0.999999999999996
outer loop
vertex 76.4988901535651 187.448859509323 -5.18697584883654e-012
vertex 76.553231327287 185.42312989366 1.17324595527712e-007
vertex 76.5021200667207 185.034901326007 -2.92963065745555e-007
endloop
endfacet
facet normal 5.88511481339839e-008 6.36876229287796e-008 -0.999999999999996
outer loop
vertex 76.553231327287 185.42312989366 1.17324595527712e-007
vertex 76.4988901535651 187.448859509323 -5.18697584883654e-012
vertex 76.7030819610438 185.784901326006 6.25543753890456e-007
endloop
endfacet
facet normal 5.88511481339839e-008 6.36876229287796e-008 -0.999999999999996
outer loop
vertex 76.7030819610438 185.784901326006 6.25543753890456e-007
vertex 76.4988901535651 187.448859509323 -5.18697584883654e-012
vertex 76.9414598949402 186.095561497785 1.19706011362519e-006
endloop
endfacet
facet normal 5.88511481339839e-008 6.36876229287796e-008 -0.999999999999996
outer loop
vertex 76.9414598949402 186.095561497785 1.19706011362519e-006
vertex 76.4988901535651 187.448859509323 -5.18697584883654e-012
vertex 77.2521200667196 186.333939431681 1.79292577956736e-006
endloop
endfacet
facet normal 5.88511481339839e-008 6.36876229287796e-008 -0.999999999999996
outer loop
vertex 77.2521200667196 186.333939431681 1.79292577956736e-006
vertex 76.4988901535651 187.448859509323 -5.18697584883654e-012
vertex 77.2957876424716 186.352027133794 1.58933417163387e-006
endloop
endfacet
facet normal 5.88511481339839e-008 6.36876229287796e-008 -0.999999999999996
outer loop
vertex 76.4988901535651 187.448859509323 -5.18697584883654e-012
vertex 71.1035275971404 180.022779970018 6.91527644136602e-007
vertex 71.1035275752005 189.201919079369 -8.47822922978025e-012
endloop
endfacet
facet normal 5.88511481339839e-008 6.36876229287796e-008 -0.999999999999996
outer loop
vertex 71.1035275971404 180.022779970018 6.91527644136602e-007
vertex 76.4988901535651 187.448859509323 -5.18697584883654e-012
vertex 76.5021200667207 185.034901326007 -2.92963065745555e-007
endloop
endfacet
facet normal 5.88511481339839e-008 6.36876229287796e-008 -0.999999999999996
outer loop
vertex 71.1035275971404 180.022779970018 6.91527644136602e-007
vertex 76.5021200667207 185.034901326007 -2.92963065745555e-007
vertex 76.553231327287 184.646672758354 -5.77358802600347e-007
endloop
endfacet
facet normal 5.88511481339839e-008 6.36876229287796e-008 -0.999999999999996
outer loop
vertex 71.1035275971404 180.022779970018 6.91527644136602e-007
vertex 76.553231327287 184.646672758354 -5.77358802600347e-007
vertex 76.7030819610438 184.284901326008 -7.16481516260803e-007
endloop
endfacet
facet normal 5.88511481339839e-008 6.36876229287796e-008 -0.999999999999996
outer loop
vertex 71.1035275971404 180.022779970018 6.91527644136602e-007
vertex 76.7030819610438 184.284901326008 -7.16481516260803e-007
vertex 79.8334076086037 180.022780002062 -1.05748743095546e-015
endloop
endfacet
facet normal 5.88511481339839e-008 6.36876229287796e-008 -0.999999999999996
outer loop
vertex 79.8334076086037 180.022780002062 -1.05748743095546e-015
vertex 76.7030819610438 184.284901326008 -7.16481516260803e-007
vertex 76.9414598949402 183.974241154228 -7.00850224558125e-007
endloop
endfacet
facet normal 5.88511481339839e-008 6.36876229287796e-008 -0.999999999999996
outer loop
vertex 79.8334076086037 180.022780002062 -1.05748743095546e-015
vertex 76.9414598949402 183.974241154228 -7.00850224558125e-007
vertex 77.2521200667196 183.735863220331 -5.31530173356054e-007
endloop
endfacet
facet normal 5.88511481339839e-008 6.36876229287796e-008 -0.999999999999996
outer loop
vertex 79.8334076086037 180.022780002062 -1.05748743095546e-015
vertex 77.2521200667196 183.735863220331 -5.31530173356054e-007
vertex 77.6138914990652 183.586012586574 -2.20060244973674e-007
endloop
endfacet
facet normal 5.88511481339839e-008 6.36876229287796e-008 -0.999999999999996
outer loop
vertex 79.8334076086037 180.022780002062 -1.05748743095546e-015
vertex 77.6138914990652 183.586012586574 -2.20060244973674e-007
vertex 78.0021200667184 183.534901326007 2.12333401100606e-007
endloop
endfacet
facet normal 5.88511481339839e-008 6.36876229287796e-008 -0.999999999999996
outer loop
vertex 79.8334076086037 180.022780002062 -1.05748743095546e-015
vertex 78.0021200667184 183.534901326007 2.12333401100606e-007
vertex 78.3903486343716 183.586012586573 7.36183851166028e-007
endloop
endfacet
facet normal 5.88511481339839e-008 6.36876229287796e-008 -0.999999999999996
outer loop
vertex 79.8334076086037 180.022780002062 -1.05748743095546e-015
vertex 78.3903486343716 183.586012586573 7.36183851166028e-007
vertex 78.7521200667173 183.735863220329 1.31579156187889e-006
endloop
endfacet
facet normal 5.88511481339839e-008 6.36876229287796e-008 -0.999999999999996
outer loop
vertex 79.8334076086037 180.022780002062 -1.05748743095546e-015
vertex 78.7521200667173 183.735863220329 1.31579156187889e-006
vertex 79.0374639826342 183.954815307868 1.58944150167317e-006
endloop
endfacet
facet normal 5.88511481339839e-008 6.36876229287796e-008 -0.999999999999996
outer loop
vertex 79.8334076086037 180.022780002062 -1.05748743095546e-015
vertex 79.0374639826342 183.954815307868 1.58944150167317e-006
vertex 79.8334076086115 182.859289970675 2.70716782324598e-013
endloop
endfacet
facet normal -0.809016622234923 0.587785764498498 7.15309089351687e-007
outer loop
vertex 65.7081649968292 187.448859509324 1.19999999999481
vertex 64.911267507916 186.352027133794 1.58933417128138e-006
vertex 64.9112688917361 186.352026117772 1.2000002735492
endloop
endfacet
facet normal -0.809016622234923 0.587785764498498 7.15309089351687e-007
outer loop
vertex 64.911267507916 186.352027133794 1.58933417128138e-006
vertex 65.7081649968292 187.448859509324 1.19999999999481
vertex 65.7081649968225 187.448859509323 -5.18697584883654e-012
endloop
endfacet
facet normal -0.309016994377271 0.951056516294399 -3.55358959360716e-014
outer loop
vertex 65.7081649968225 187.448859509323 -5.18697584883654e-012
vertex 71.1035275751938 189.201919079369 1.19999999999152
vertex 71.1035275752005 189.201919079369 -8.47822922978025e-012
endloop
endfacet
facet normal -0.309016994377271 0.951056516294399 -3.55358959360716e-014
outer loop
vertex 71.1035275751938 189.201919079369 1.19999999999152
vertex 65.7081649968225 187.448859509323 -5.18697584883654e-012
vertex 65.7081649968292 187.448859509324 1.19999999999481
endloop
endfacet
endsolid transformer_eyeballs_helmet_12_correct_eyeball
